<svg width="167" height="40" viewBox="0 0 167 40" fill="none" xmlns="http://www.w3.org/2000/svg">
    <path fill-rule="evenodd" clip-rule="evenodd" d="M87.4985 6.10352e-05C85.0053 6.10352e-05 82.8678 1.51452 81.9498 3.67231L69.6312 31.3859C67.8361 35.4274 70.5627 39.9995 75.0815 39.9995C77.5971 39.9995 79.7528 38.4591 80.6571 36.2703L92.952 8.60626C94.7388 4.57221 92.0195 6.10352e-05 87.4985 6.10352e-05Z" fill="url(#paint0_linear_112_44)"/>
    <path fill-rule="evenodd" clip-rule="evenodd" d="M93.0532 3.6796C92.1368 1.51788 89.9947 0.000810176 87.4983 0.000810176C82.9932 0.000810176 80.2705 4.61091 82.0211 8.55687L90.7747 28.253C93.6824 34.7149 102.433 32.3621 102.433 26.0652C102.433 24.3478 101.531 22.7561 100.847 21.2167L93.0532 3.6796Z" fill="url(#paint1_linear_112_44)"/>
    <path fill-rule="evenodd" clip-rule="evenodd" d="M99.7513 3.67961C100.668 1.51788 102.81 0.000816131 105.306 0.000816131C109.811 0.000816131 112.534 4.61092 110.783 8.55687L102.03 28.253C99.1222 34.7149 90.3718 32.3621 90.3718 26.0652C90.3718 24.3478 91.2736 22.7561 91.9576 21.2167L99.7513 3.67961Z" fill="url(#paint2_linear_112_44)"/>
    <path fill-rule="evenodd" clip-rule="evenodd" d="M105.306 0.000816131C107.799 0.000816131 109.937 1.5146 110.855 3.6724L123.174 31.3859C124.969 35.4275 122.242 40.0001 117.723 40.0001C115.208 40.0001 113.052 38.4592 112.148 36.2703L99.8525 8.60635C98.066 4.5723 100.785 0.000816131 105.306 0.000816131Z" fill="url(#paint3_linear_112_44)"/>
    <path d="M0 30.4391V26.8879C1.40488 26.8618 2.48455 26.7968 3.23903 26.6927C3.9935 26.5627 4.53984 26.3025 4.87805 25.9123C5.21626 25.496 5.41138 24.8586 5.46342 24.0001C5.54146 23.1415 5.58049 21.9578 5.58049 20.4488V3.5903H9.99025V19.161C9.99025 21.3204 9.93821 23.1025 9.83415 24.5074C9.7561 25.9123 9.54797 27.0179 9.20976 27.8244C8.89756 28.631 8.37724 29.2163 7.64878 29.5805C6.94634 29.9448 5.97073 30.1789 4.72195 30.283C3.49919 30.387 1.9252 30.4391 0 30.4391Z" fill="#F9F6F6"/>
    <path d="M22.9491 30.7513C21.5702 30.7513 20.4385 30.5952 19.554 30.283C18.6954 29.9448 18.032 29.4505 17.5637 28.8001C17.1214 28.1497 16.8223 27.3431 16.6662 26.3805C16.5101 25.4179 16.432 24.2862 16.432 22.9854V10.5366H20.5686V21.3464C20.5686 22.6472 20.6076 23.6879 20.6857 24.4683C20.7897 25.2228 20.9849 25.7952 21.271 26.1854C21.5572 26.5497 21.9735 26.7838 22.5198 26.8879C23.0922 26.9919 23.8467 27.044 24.7832 27.044C25.8239 27.044 26.6564 26.9139 27.2808 26.6537C27.9052 26.3936 28.3605 26.0033 28.6467 25.483C28.9588 24.9627 29.154 24.3123 29.232 23.5318C29.3101 22.7513 29.3491 21.8407 29.3491 20.8001V10.5366H33.5247V30.4391H29.7003L29.5442 27.7854H29.271C28.9849 28.4098 28.5686 28.9431 28.0223 29.3854C27.5019 29.8277 26.8255 30.1659 25.993 30.4001C25.1605 30.6342 24.1458 30.7513 22.9491 30.7513Z" fill="#F9F6F6"/>
    <path d="M46.6253 30.7513C45.8448 30.7513 44.9993 30.7253 44.0887 30.6732C43.2042 30.6212 42.3326 30.5562 41.4741 30.4781C40.6156 30.4001 39.8481 30.309 39.1717 30.2049V26.9269C39.6139 26.9529 40.1082 26.9919 40.6546 27.044C41.2269 27.096 41.8253 27.135 42.4497 27.161C43.0741 27.187 43.6855 27.2131 44.2839 27.2391C44.8822 27.2651 45.4676 27.2781 46.0399 27.2781C47.2887 27.2781 48.1863 27.2001 48.7326 27.044C49.305 26.8879 49.6692 26.6277 49.8253 26.2635C50.0074 25.8732 50.0985 25.3789 50.0985 24.7805C50.0985 24.1041 50.0334 23.6098 49.9034 23.2976C49.7993 22.9854 49.5912 22.7773 49.279 22.6732C48.9668 22.5692 48.4855 22.4781 47.8351 22.4001L42.996 21.8147C41.7473 21.6846 40.7977 21.3984 40.1473 20.9562C39.5229 20.4879 39.0936 19.8635 38.8595 19.083C38.6513 18.2765 38.5473 17.3009 38.5473 16.1562C38.5473 14.8293 38.7294 13.7757 39.0936 12.9952C39.4838 12.1887 40.0172 11.5903 40.6936 11.2001C41.396 10.8098 42.2416 10.5496 43.2302 10.4196C44.2188 10.2895 45.2985 10.2244 46.4692 10.2244C47.1977 10.2244 47.9521 10.2505 48.7326 10.3025C49.5391 10.3545 50.3066 10.4326 51.0351 10.5366C51.7895 10.6147 52.4399 10.7057 52.9863 10.8098V14.0879C52.3619 14.0098 51.6855 13.9448 50.957 13.8927C50.2286 13.8407 49.5001 13.8017 48.7717 13.7757C48.0692 13.7236 47.3928 13.6976 46.7424 13.6976C45.7798 13.6976 44.9863 13.7496 44.3619 13.8537C43.7375 13.9318 43.2692 14.1399 42.957 14.4781C42.6708 14.7903 42.5278 15.3366 42.5278 16.1171C42.5278 16.7155 42.5668 17.1708 42.6448 17.483C42.7489 17.7692 42.944 17.9773 43.2302 18.1074C43.5424 18.2114 44.0107 18.3025 44.6351 18.3805L49.8643 19.0049C50.853 19.109 51.6465 19.3171 52.2448 19.6293C52.8692 19.9155 53.3245 20.4488 53.6107 21.2293C53.9229 21.9838 54.079 23.1415 54.079 24.7025C54.079 26.0033 53.9099 27.057 53.5717 27.8635C53.2595 28.644 52.7782 29.2553 52.1278 29.6976C51.4773 30.1139 50.6839 30.3871 49.7473 30.5171C48.8367 30.6732 47.796 30.7513 46.6253 30.7513Z" fill="#F9F6F6"/>
    <path d="M60.7195 30.4391V14.0098H56.739V10.5366H60.7195V4.76103H64.8561V10.5366H69.5V14.0098H64.8561V30.4391H60.7195Z" fill="#F9F6F6"/>
    <path d="M132.839 30.7513C131.486 30.7513 130.341 30.5692 129.405 30.2049C128.494 29.8407 127.805 29.2423 127.337 28.4098C126.868 27.5513 126.634 26.3936 126.634 24.9366C126.634 23.4017 126.816 22.1919 127.181 21.3074C127.545 20.3968 128.169 19.7464 129.054 19.3562C129.938 18.9659 131.187 18.7708 132.8 18.7708C133.06 18.7708 133.437 18.7838 133.932 18.8098C134.452 18.8098 135.037 18.8228 135.688 18.8488C136.364 18.8488 137.028 18.8618 137.678 18.8879C138.354 18.8879 138.966 18.9009 139.512 18.9269V17.9903C139.512 16.9757 139.447 16.1822 139.317 15.6098C139.187 15.0375 138.914 14.6212 138.498 14.361C138.107 14.0749 137.535 13.8927 136.781 13.8147C136.026 13.7366 135.05 13.6976 133.854 13.6976C133.281 13.6976 132.605 13.7236 131.824 13.7757C131.07 13.8017 130.328 13.8407 129.6 13.8927C128.872 13.9448 128.312 14.0098 127.922 14.0879V10.8098C128.989 10.6017 130.159 10.4586 131.434 10.3805C132.709 10.2765 133.984 10.2244 135.259 10.2244C136.741 10.2244 137.977 10.3155 138.966 10.4976C139.981 10.6797 140.8 10.9659 141.424 11.3562C142.049 11.7464 142.517 12.2537 142.829 12.8781C143.141 13.5025 143.363 14.257 143.493 15.1415C143.623 16.0001 143.688 16.9887 143.688 18.1074V30.4391H139.863L139.707 27.8635H139.473C139.031 28.696 138.433 29.3334 137.678 29.7757C136.95 30.1919 136.156 30.4521 135.298 30.5562C134.439 30.6862 133.62 30.7513 132.839 30.7513ZM134.673 27.3952C135.324 27.3952 135.909 27.3562 136.429 27.2781C136.976 27.174 137.444 27.0179 137.834 26.8098C138.25 26.5757 138.576 26.2635 138.81 25.8732C139.044 25.431 139.213 24.9236 139.317 24.3513C139.447 23.7789 139.512 23.1025 139.512 22.322V21.6196H133.815C132.956 21.6196 132.293 21.6846 131.824 21.8147C131.382 21.9448 131.083 22.2179 130.927 22.6342C130.771 23.0505 130.693 23.6879 130.693 24.5464C130.693 25.3529 130.784 25.9643 130.966 26.3805C131.148 26.7708 131.525 27.044 132.098 27.2001C132.696 27.3301 133.554 27.3952 134.673 27.3952Z" fill="#F9F6F6"/>
    <path d="M149.87 30.4391V10.5366H153.694L153.811 13.1903H154.123C154.435 12.5399 154.852 12.0066 155.372 11.5903C155.892 11.148 156.569 10.8098 157.401 10.5757C158.234 10.3415 159.248 10.2244 160.445 10.2244C161.85 10.2244 162.982 10.3936 163.84 10.7318C164.699 11.044 165.349 11.5253 165.791 12.1757C166.234 12.8261 166.533 13.6326 166.689 14.5952C166.871 15.5578 166.962 16.6895 166.962 17.9903V30.4391H162.787V19.6293C162.787 18.3285 162.735 17.3009 162.631 16.5464C162.552 15.7659 162.37 15.1936 162.084 14.8293C161.798 14.4391 161.369 14.1919 160.796 14.0879C160.25 13.9838 159.509 13.9318 158.572 13.9318C157.531 13.9318 156.699 14.0618 156.074 14.322C155.476 14.5822 155.021 14.9724 154.709 15.4927C154.422 16.0131 154.227 16.6635 154.123 17.444C154.045 18.2244 154.006 19.135 154.006 20.1757V30.4391H149.87Z" fill="#F9F6F6"/>
    <defs>
        <linearGradient id="paint0_linear_112_44" x1="129.063" y1="34.3017" x2="126.734" y2="0.168482" gradientUnits="userSpaceOnUse">
            <stop stop-color="#7F00AF"/>
            <stop offset="1" stop-color="#4A00CD"/>
        </linearGradient>
        <linearGradient id="paint1_linear_112_44" x1="44.2789" y1="32.5607" x2="46.6602" y2="1.34075" gradientUnits="userSpaceOnUse">
            <stop stop-color="#7F00AF"/>
            <stop offset="1" stop-color="#A40099"/>
        </linearGradient>
        <linearGradient id="paint2_linear_112_44" x1="42.3191" y1="6.17968" x2="44.6223" y2="37.7645" gradientUnits="userSpaceOnUse">
            <stop stop-color="#A40099"/>
            <stop offset="1" stop-color="#C90083"/>
        </linearGradient>
        <linearGradient id="paint3_linear_112_44" x1="40.8069" y1="34.0238" x2="43.0165" y2="0.111394" gradientUnits="userSpaceOnUse">
            <stop stop-color="#C90083"/>
            <stop offset="1" stop-color="#FF0066"/>
        </linearGradient>
    </defs>
</svg>
